ffmpeg started on 2025-06-06 at 16:02:38
Report written to "D:\Convert\FFMetrics\reports\psnr_report-6.txt"
Log level: 32
Command line:
ffmpeg -hide_banner -nostdin -i "G:\\\xc0\xed\xe8\xec\xe5\\\xce\xed\xe3\xee\xe8\xed\xe3\xe8\\!_36_\xce\xf1\xe5\xed\xfc_2024\\DreamCast\\\xcf\xe5\xf0\xe5\xf0\xee\xe6\xe4\xe5\xed\xe8\xe5 \xe2 \xe0\xf0\xe8\xf1\xf2\xee\xea\xf0\xe0\xf2\xe0 \xf1\xee \xf1\xef\xee\xf1\xee\xe1\xed\xee\xf1\xf2\xfc\xfe \xe0\xed\xe0\xeb\xe8\xe7\xe0\\\xd2\xc2-1\\[DC] Tensei Kizoku - Kantei Skill de Nariagaru - 11_Telegram_HEVC.mkv" -i "G:\\\xc0\xed\xe8\xec\xe5\\\xce\xed\xe3\xee\xe8\xed\xe3\xe8\\!_36_\xce\xf1\xe5\xed\xfc_2024\\DreamCast\\\xcf\xe5\xf0\xe5\xf0\xee\xe6\xe4\xe5\xed\xe8\xe5 \xe2 \xe0\xf0\xe8\xf1\xf2\xee\xea\xf0\xe0\xf2\xe0 \xf1\xee \xf1\xef\xee\xf1\xee\xe1\xed\xee\xf1\xf2\xfc\xfe \xe0\xed\xe0\xeb\xe8\xe7\xe0\\\xd2\xc2-1\\[DC] Tensei Kizoku - Kantei Skill de Nariagaru - 11_Telegram.mp4" -lavfi "[0:v]settb=AVTB,setpts=PTS-STARTPTS,format=pix_fmts=yuv420p10,fps=24000/1001,scale=1920:1080:flags=bicubic[main];[1:v]settb=AVTB,setpts=PTS-STARTPTS,format=pix_fmts=yuv420p,fps=24000/1001,scale=1920:1080:flags=bicubic[ref];[main][ref]psnr=eof_action=endall:stats_file='D\\:/Convert/FFMetrics/logs/psnr_logfile-6.txt'" -f null -
Input #0, matroska,webm, from 'G:\Аниме\Онгоинги\!_36_Осень_2024\DreamCast\Перерождение в аристократа со способностью анализа\ТВ-1\[DC] Tensei Kizoku - Kantei Skill de Nariagaru - 11_Telegram_HEVC.mkv':
  Metadata:
    COMPATIBLE_BRANDS: isomiso2avc1mp41
    MAJOR_BRAND     : isom
    MINOR_VERSION   : 512
    ENCODER         : Lavf61.7.100
  Duration: 00:23:47.84, start: -0.021000, bitrate: 1156 kb/s
  Stream #0:0: Video: hevc (Main 10), yuv420p10le(tv, bt709, progressive), 1920x1080 [SAR 1:1 DAR 16:9], 23.98 fps, 23.98 tbr, 1k tbn (default)
      Metadata:
        HANDLER_NAME    : VideoHandler
        VENDOR_ID       : [0][0][0][0]
        ENCODER         : Lavc61.19.100 libx265
        BPS             : 959274
        DURATION        : 00:23:46.591708333
        NUMBER_OF_FRAMES: 34204
        NUMBER_OF_BYTES : 171061578
        _STATISTICS_WRITING_APP: mkvpropedit v66.0.0 ('Josie') 64-bit
        _STATISTICS_WRITING_DATE_UTC: 2025-06-02 08:35:12
        _STATISTICS_TAGS: BPS DURATION NUMBER_OF_FRAMES NUMBER_OF_BYTES
  Stream #0:1: Audio: aac (LC), 48000 Hz, stereo, fltp (default)
      Metadata:
        HANDLER_NAME    : SoundHandler
        VENDOR_ID       : [0][0][0][0]
        ENCODER         : Lavc61.19.100 aac
        BPS             : 193674
        DURATION        : 00:23:47.840000000
        NUMBER_OF_FRAMES: 66931
        NUMBER_OF_BYTES : 34567046
        _STATISTICS_WRITING_APP: mkvpropedit v66.0.0 ('Josie') 64-bit
        _STATISTICS_WRITING_DATE_UTC: 2025-06-02 08:35:12
        _STATISTICS_TAGS: BPS DURATION NUMBER_OF_FRAMES NUMBER_OF_BYTES
Input #1, mov,mp4,m4a,3gp,3g2,mj2, from 'G:\Аниме\Онгоинги\!_36_Осень_2024\DreamCast\Перерождение в аристократа со способностью анализа\ТВ-1\[DC] Tensei Kizoku - Kantei Skill de Nariagaru - 11_Telegram.mp4':
  Metadata:
    major_brand     : isom
    minor_version   : 512
    compatible_brands: isomiso2avc1mp41
    encoder         : Lavf60.16.100
  Duration: 00:23:47.81, start: 0.000000, bitrate: 3661 kb/s
  Stream #1:0[0x1](und): Video: h264 (High) (avc1 / 0x31637661), yuv420p(tv, bt709, progressive), 1920x1080 [SAR 1:1 DAR 16:9], 3516 kb/s, 23.98 fps, 23.98 tbr, 24k tbn (default)
      Metadata:
        handler_name    : VideoHandler
        vendor_id       : [0][0][0][0]
        encoder         : Lavc60.31.102 h264_qsv
  Stream #1:1[0x2](und): Audio: aac (HE-AACv2) (mp4a / 0x6134706D), 48000 Hz, stereo, fltp, 144 kb/s (default)
      Metadata:
        handler_name    : SoundHandler
        vendor_id       : [0][0][0][0]
Stream mapping:
  Stream #0:0 (hevc) -> settb:default
  Stream #1:0 (h264) -> settb:default
  psnr:default -> Stream #0:0 (wrapped_avframe)
  Stream #0:1 -> #0:1 (aac (native) -> pcm_s16le (native))
Output #0, null, to 'pipe:':
  Metadata:
    COMPATIBLE_BRANDS: isomiso2avc1mp41
    MAJOR_BRAND     : isom
    MINOR_VERSION   : 512
    encoder         : Lavf61.7.100
  Stream #0:0: Video: wrapped_avframe, yuv420p10le(tv, bt709, progressive), 1920x1080 [SAR 1:1 DAR 16:9], q=2-31, 200 kb/s, 23.98 fps, 23.98 tbn
      Metadata:
        encoder         : Lavc61.19.100 wrapped_avframe
  Stream #0:1: Audio: pcm_s16le, 48000 Hz, stereo, s16, 1536 kb/s (default)
      Metadata:
        HANDLER_NAME    : SoundHandler
        VENDOR_ID       : [0][0][0][0]
        _STATISTICS_TAGS: BPS DURATION NUMBER_OF_FRAMES NUMBER_OF_BYTES
        BPS             : 193674
        DURATION        : 00:23:47.840000000
        NUMBER_OF_FRAMES: 66931
        NUMBER_OF_BYTES : 34567046
        _STATISTICS_WRITING_APP: mkvpropedit v66.0.0 ('Josie') 64-bit
        _STATISTICS_WRITING_DATE_UTC: 2025-06-02 08:35:12
        encoder         : Lavc61.19.100 pcm_s16le
frame=  171 fps=0.0 q=-0.0 size=N/A time=00:00:07.13 bitrate=N/A speed=14.1x    frame=  411 fps=400 q=-0.0 size=N/A time=00:00:17.14 bitrate=N/A speed=16.7x    frame=  638 fps=415 q=-0.0 size=N/A time=00:00:26.60 bitrate=N/A speed=17.3x    frame=  862 fps=419 q=-0.0 size=N/A time=00:00:35.95 bitrate=N/A speed=17.5x    frame= 1034 fps=403 q=-0.0 size=N/A time=00:00:43.12 bitrate=N/A speed=16.8x    frame= 1221 fps=396 q=-0.0 size=N/A time=00:00:50.92 bitrate=N/A speed=16.5x    frame= 1374 fps=381 q=-0.0 size=N/A time=00:00:57.30 bitrate=N/A speed=15.9x    frame= 1518 fps=369 q=-0.0 size=N/A time=00:01:03.31 bitrate=N/A speed=15.4x    frame= 1716 fps=370 q=-0.0 size=N/A time=00:01:11.57 bitrate=N/A speed=15.4x    frame= 1888 fps=367 q=-0.0 size=N/A time=00:01:18.74 bitrate=N/A speed=15.3x    frame= 2068 fps=365 q=-0.0 size=N/A time=00:01:26.25 bitrate=N/A speed=15.2x    frame= 2267 fps=367 q=-0.0 size=N/A time=00:01:34.55 bitrate=N/A speed=15.3x    frame= 2482 fps=371 q=-0.0 size=N/A time=00:01:43.52 bitrate=N/A speed=15.5x    frame= 2691 fps=373 q=-0.0 size=N/A time=00:01:52.23 bitrate=N/A speed=15.5x    frame= 2879 fps=373 q=-0.0 size=N/A time=00:02:00.07 bitrate=N/A speed=15.5x    frame= 3121 fps=378 q=-0.0 size=N/A time=00:02:10.17 bitrate=N/A speed=15.8x    frame= 3382 fps=386 q=-0.0 size=N/A time=00:02:21.05 bitrate=N/A speed=16.1x    frame= 3647 fps=393 q=-0.0 size=N/A time=00:02:32.11 bitrate=N/A speed=16.4x    frame= 3890 fps=398 q=-0.0 size=N/A time=00:02:42.24 bitrate=N/A speed=16.6x    frame= 4143 fps=402 q=-0.0 size=N/A time=00:02:52.79 bitrate=N/A speed=16.8x    frame= 4380 fps=405 q=-0.0 size=N/A time=00:03:02.68 bitrate=N/A speed=16.9x    frame= 4620 fps=408 q=-0.0 size=N/A time=00:03:12.69 bitrate=N/A speed=  17x    frame= 4885 fps=412 q=-0.0 size=N/A time=00:03:23.74 bitrate=N/A speed=17.2x    frame= 5134 fps=415 q=-0.0 size=N/A time=00:03:34.13 bitrate=N/A speed=17.3x    frame= 5399 fps=419 q=-0.0 size=N/A time=00:03:45.18 bitrate=N/A speed=17.5x    frame= 5653 fps=422 q=-0.0 size=N/A time=00:03:55.77 bitrate=N/A speed=17.6x    frame= 5902 fps=424 q=-0.0 size=N/A time=00:04:06.16 bitrate=N/A speed=17.7x    frame= 6167 fps=428 q=-0.0 size=N/A time=00:04:17.21 bitrate=N/A speed=17.8x    frame= 6437 fps=431 q=-0.0 size=N/A time=00:04:28.47 bitrate=N/A speed=  18x    frame= 6714 fps=434 q=-0.0 size=N/A time=00:04:40.02 bitrate=N/A speed=18.1x    frame= 6970 fps=436 q=-0.0 size=N/A time=00:04:50.70 bitrate=N/A speed=18.2x    frame= 7217 fps=438 q=-0.0 size=N/A time=00:05:01.00 bitrate=N/A speed=18.2x    frame= 7455 fps=438 q=-0.0 size=N/A time=00:05:10.93 bitrate=N/A speed=18.3x    frame= 7652 fps=437 q=-0.0 size=N/A time=00:05:19.15 bitrate=N/A speed=18.2x    frame= 7862 fps=436 q=-0.0 size=N/A time=00:05:27.91 bitrate=N/A speed=18.2x    frame= 8115 fps=437 q=-0.0 size=N/A time=00:05:38.46 bitrate=N/A speed=18.2x    frame= 8326 fps=436 q=-0.0 size=N/A time=00:05:47.26 bitrate=N/A speed=18.2x    frame= 8540 fps=436 q=-0.0 size=N/A time=00:05:56.18 bitrate=N/A speed=18.2x    frame= 8811 fps=438 q=-0.0 size=N/A time=00:06:07.49 bitrate=N/A speed=18.3x    frame= 9048 fps=439 q=-0.0 size=N/A time=00:06:17.37 bitrate=N/A speed=18.3x    frame= 9234 fps=437 q=-0.0 size=N/A time=00:06:25.13 bitrate=N/A speed=18.2x    frame= 9471 fps=437 q=-0.0 size=N/A time=00:06:35.01 bitrate=N/A speed=18.2x    frame= 9725 fps=439 q=-0.0 size=N/A time=00:06:45.61 bitrate=N/A speed=18.3x    frame=10004 fps=441 q=-0.0 size=N/A time=00:06:57.25 bitrate=N/A speed=18.4x    frame=10243 fps=442 q=-0.0 size=N/A time=00:07:07.21 bitrate=N/A speed=18.4x    frame=10502 fps=443 q=-0.0 size=N/A time=00:07:18.02 bitrate=N/A speed=18.5x    frame=10771 fps=444 q=-0.0 size=N/A time=00:07:29.24 bitrate=N/A speed=18.5x    frame=11014 fps=445 q=-0.0 size=N/A time=00:07:39.37 bitrate=N/A speed=18.6x    frame=11273 fps=446 q=-0.0 size=N/A time=00:07:50.17 bitrate=N/A speed=18.6x    frame=11547 fps=448 q=-0.0 size=N/A time=00:08:01.60 bitrate=N/A speed=18.7x    frame=11810 fps=449 q=-0.0 size=N/A time=00:08:12.57 bitrate=N/A speed=18.7x    frame=12043 fps=449 q=-0.0 size=N/A time=00:08:22.29 bitrate=N/A speed=18.7x    frame=12271 fps=449 q=-0.0 size=N/A time=00:08:31.80 bitrate=N/A speed=18.7x    frame=12520 fps=450 q=-0.0 size=N/A time=00:08:42.18 bitrate=N/A speed=18.8x    frame=12789 fps=451 q=-0.0 size=N/A time=00:08:53.40 bitrate=N/A speed=18.8x    frame=13070 fps=453 q=-0.0 size=N/A time=00:09:05.12 bitrate=N/A speed=18.9x    frame=13307 fps=453 q=-0.0 size=N/A time=00:09:15.01 bitrate=N/A speed=18.9x    frame=13565 fps=453 q=-0.0 size=N/A time=00:09:25.77 bitrate=N/A speed=18.9x    frame=13816 fps=454 q=-0.0 size=N/A time=00:09:36.24 bitrate=N/A speed=18.9x    frame=14028 fps=453 q=-0.0 size=N/A time=00:09:45.08 bitrate=N/A speed=18.9x    frame=14249 fps=453 q=-0.0 size=N/A time=00:09:54.30 bitrate=N/A speed=18.9x    frame=14462 fps=452 q=-0.0 size=N/A time=00:10:03.18 bitrate=N/A speed=18.9x    frame=14691 fps=452 q=-0.0 size=N/A time=00:10:12.73 bitrate=N/A speed=18.9x    frame=14951 fps=453 q=-0.0 size=N/A time=00:10:23.58 bitrate=N/A speed=18.9x    frame=15197 fps=453 q=-0.0 size=N/A time=00:10:33.84 bitrate=N/A speed=18.9x    frame=15439 fps=453 q=-0.0 size=N/A time=00:10:43.93 bitrate=N/A speed=18.9x    frame=15702 fps=454 q=-0.0 size=N/A time=00:10:54.90 bitrate=N/A speed=  19x    frame=15927 fps=454 q=-0.0 size=N/A time=00:11:04.28 bitrate=N/A speed=18.9x    frame=16195 fps=455 q=-0.0 size=N/A time=00:11:15.46 bitrate=N/A speed=  19x    frame=16462 fps=456 q=-0.0 size=N/A time=00:11:26.60 bitrate=N/A speed=  19x    frame=16712 fps=456 q=-0.0 size=N/A time=00:11:37.02 bitrate=N/A speed=  19x    frame=16942 fps=456 q=-0.0 size=N/A time=00:11:46.62 bitrate=N/A speed=  19x    frame=17180 fps=456 q=-0.0 size=N/A time=00:11:56.54 bitrate=N/A speed=  19x    frame=17373 fps=455 q=-0.0 size=N/A time=00:12:04.59 bitrate=N/A speed=  19x    frame=17615 fps=455 q=-0.0 size=N/A time=00:12:14.69 bitrate=N/A speed=  19x    frame=17872 fps=456 q=-0.0 size=N/A time=00:12:25.41 bitrate=N/A speed=  19x    frame=18079 fps=455 q=-0.0 size=N/A time=00:12:34.04 bitrate=N/A speed=  19x    frame=18312 fps=455 q=-0.0 size=N/A time=00:12:43.76 bitrate=N/A speed=  19x    frame=18558 fps=455 q=-0.0 size=N/A time=00:12:54.02 bitrate=N/A speed=  19x    frame=18746 fps=454 q=-0.0 size=N/A time=00:13:01.86 bitrate=N/A speed=18.9x    frame=18902 fps=452 q=-0.0 size=N/A time=00:13:08.37 bitrate=N/A speed=18.9x    frame=19132 fps=452 q=-0.0 size=N/A time=00:13:17.96 bitrate=N/A speed=18.9x    frame=19422 fps=454 q=-0.0 size=N/A time=00:13:30.05 bitrate=N/A speed=18.9x    frame=19659 fps=454 q=-0.0 size=N/A time=00:13:39.94 bitrate=N/A speed=18.9x    frame=19939 fps=455 q=-0.0 size=N/A time=00:13:51.62 bitrate=N/A speed=  19x    frame=20209 fps=455 q=-0.0 size=N/A time=00:14:02.88 bitrate=N/A speed=  19x    frame=20460 fps=456 q=-0.0 size=N/A time=00:14:13.35 bitrate=N/A speed=  19x    frame=20699 fps=456 q=-0.0 size=N/A time=00:14:23.32 bitrate=N/A speed=  19x    frame=20943 fps=456 q=-0.0 size=N/A time=00:14:33.49 bitrate=N/A speed=  19x    frame=21208 fps=457 q=-0.0 size=N/A time=00:14:44.55 bitrate=N/A speed=  19x    frame=21477 fps=457 q=-0.0 size=N/A time=00:14:55.76 bitrate=N/A speed=19.1x    frame=21715 fps=458 q=-0.0 size=N/A time=00:15:05.69 bitrate=N/A speed=19.1x    frame=21967 fps=458 q=-0.0 size=N/A time=00:15:16.20 bitrate=N/A speed=19.1x    frame=22188 fps=458 q=-0.0 size=N/A time=00:15:25.42 bitrate=N/A speed=19.1x    frame=22421 fps=458 q=-0.0 size=N/A time=00:15:35.14 bitrate=N/A speed=19.1x    frame=22682 fps=458 q=-0.0 size=N/A time=00:15:46.02 bitrate=N/A speed=19.1x    frame=22919 fps=458 q=-0.0 size=N/A time=00:15:55.91 bitrate=N/A speed=19.1x    frame=23134 fps=458 q=-0.0 size=N/A time=00:16:04.88 bitrate=N/A speed=19.1x    frame=23384 fps=458 q=-0.0 size=N/A time=00:16:15.30 bitrate=N/A speed=19.1x    frame=23594 fps=457 q=-0.0 size=N/A time=00:16:24.06 bitrate=N/A speed=19.1x    frame=23819 fps=457 q=-0.0 size=N/A time=00:16:33.45 bitrate=N/A speed=19.1x    frame=24028 fps=457 q=-0.0 size=N/A time=00:16:42.16 bitrate=N/A speed=  19x    frame=24275 fps=457 q=-0.0 size=N/A time=00:16:52.46 bitrate=N/A speed=19.1x    frame=24531 fps=457 q=-0.0 size=N/A time=00:17:03.14 bitrate=N/A speed=19.1x    frame=24764 fps=457 q=-0.0 size=N/A time=00:17:12.86 bitrate=N/A speed=19.1x    frame=24999 fps=457 q=-0.0 size=N/A time=00:17:22.66 bitrate=N/A speed=19.1x    frame=25203 fps=457 q=-0.0 size=N/A time=00:17:31.17 bitrate=N/A speed=  19x    frame=25467 fps=457 q=-0.0 size=N/A time=00:17:42.18 bitrate=N/A speed=19.1x    frame=25739 fps=458 q=-0.0 size=N/A time=00:17:53.53 bitrate=N/A speed=19.1x    frame=26006 fps=458 q=-0.0 size=N/A time=00:18:04.70 bitrate=N/A speed=19.1x    frame=26280 fps=459 q=-0.0 size=N/A time=00:18:16.09 bitrate=N/A speed=19.1x    frame=26541 fps=459 q=-0.0 size=N/A time=00:18:26.98 bitrate=N/A speed=19.2x    frame=26792 fps=459 q=-0.0 size=N/A time=00:18:37.44 bitrate=N/A speed=19.2x    frame=27057 fps=460 q=-0.0 size=N/A time=00:18:48.50 bitrate=N/A speed=19.2x    frame=27313 fps=460 q=-0.0 size=N/A time=00:18:59.17 bitrate=N/A speed=19.2x    frame=27582 fps=461 q=-0.0 size=N/A time=00:19:10.39 bitrate=N/A speed=19.2x    frame=27850 fps=461 q=-0.0 size=N/A time=00:19:21.57 bitrate=N/A speed=19.2x    frame=28062 fps=461 q=-0.0 size=N/A time=00:19:30.41 bitrate=N/A speed=19.2x    frame=28333 fps=461 q=-0.0 size=N/A time=00:19:41.72 bitrate=N/A speed=19.2x    frame=28589 fps=462 q=-0.0 size=N/A time=00:19:52.39 bitrate=N/A speed=19.3x    frame=28862 fps=462 q=-0.0 size=N/A time=00:20:03.78 bitrate=N/A speed=19.3x    frame=29109 fps=462 q=-0.0 size=N/A time=00:20:14.08 bitrate=N/A speed=19.3x    frame=29330 fps=462 q=-0.0 size=N/A time=00:20:23.30 bitrate=N/A speed=19.3x    frame=29542 fps=462 q=-0.0 size=N/A time=00:20:32.14 bitrate=N/A speed=19.3x    frame=29779 fps=462 q=-0.0 size=N/A time=00:20:42.03 bitrate=N/A speed=19.3x    frame=30003 fps=461 q=-0.0 size=N/A time=00:20:51.37 bitrate=N/A speed=19.2x    frame=30213 fps=461 q=-0.0 size=N/A time=00:21:00.13 bitrate=N/A speed=19.2x    frame=30420 fps=460 q=-0.0 size=N/A time=00:21:08.76 bitrate=N/A speed=19.2x    frame=30672 fps=461 q=-0.0 size=N/A time=00:21:19.27 bitrate=N/A speed=19.2x    frame=30931 fps=461 q=-0.0 size=N/A time=00:21:30.08 bitrate=N/A speed=19.2x    frame=31189 fps=461 q=-0.0 size=N/A time=00:21:40.84 bitrate=N/A speed=19.2x    frame=31417 fps=461 q=-0.0 size=N/A time=00:21:50.35 bitrate=N/A speed=19.2x    frame=31578 fps=460 q=-0.0 size=N/A time=00:21:57.06 bitrate=N/A speed=19.2x    frame=31750 fps=459 q=-0.0 size=N/A time=00:22:04.23 bitrate=N/A speed=19.2x    frame=31924 fps=458 q=-0.0 size=N/A time=00:22:11.49 bitrate=N/A speed=19.1x    frame=32123 fps=458 q=-0.0 size=N/A time=00:22:19.79 bitrate=N/A speed=19.1x    frame=32323 fps=457 q=-0.0 size=N/A time=00:22:28.18 bitrate=N/A speed=19.1x    frame=32514 fps=457 q=-0.0 size=N/A time=00:22:36.10 bitrate=N/A speed=  19x    frame=32701 fps=456 q=-0.0 size=N/A time=00:22:43.90 bitrate=N/A speed=  19x    frame=32890 fps=455 q=-0.0 size=N/A time=00:22:51.78 bitrate=N/A speed=  19x    frame=33085 fps=455 q=-0.0 size=N/A time=00:22:59.92 bitrate=N/A speed=  19x    frame=33233 fps=454 q=-0.0 size=N/A time=00:23:06.09 bitrate=N/A speed=18.9x    frame=33455 fps=453 q=-0.0 size=N/A time=00:23:15.35 bitrate=N/A speed=18.9x    frame=33661 fps=453 q=-0.0 size=N/A time=00:23:23.94 bitrate=N/A speed=18.9x    frame=33836 fps=452 q=-0.0 size=N/A time=00:23:31.24 bitrate=N/A speed=18.9x    frame=34002 fps=451 q=-0.0 size=N/A time=00:23:38.16 bitrate=N/A speed=18.8x    frame=34164 fps=450 q=-0.0 size=N/A time=00:23:44.92 bitrate=N/A speed=18.8x    [Parsed_psnr_10 @ 000001d174dea740] PSNR y:47.574665 u:50.285421 v:50.075659 average:48.282251 min:41.310687 max:inf
[out#0/null @ 000001d1749250c0] video:14697KiB audio:267724KiB subtitle:0KiB other streams:0KiB global headers:0KiB muxing overhead: unknown
frame=34204 fps=450 q=-0.0 Lsize=N/A time=00:23:46.59 bitrate=N/A speed=18.8x    
